<?xml version="1.0" encoding="utf-8"?>
<!-- Generator: Adobe Illustrator 27.0.1, SVG Export Plug-In . SVG Version: 6.00 Build 0)  -->
<svg version="1.1" id="Layer_1" xmlns="http://www.w3.org/2000/svg" xmlns:xlink="http://www.w3.org/1999/xlink" x="0px" y="0px"
	 viewBox="0 0 50 50" style="enable-background:new 0 0 50 50;" xml:space="preserve">
<style type="text/css">
	.st0{fill:none;stroke:#000000;stroke-width:3.0025;stroke-miterlimit:10;}
	.st1{fill:#BA1111;}
</style>
<circle class="st0" cx="32.77" cy="37.96" r="5.38"/>
<path class="st1" d="M47.59,32.29c-0.62-0.77-0.66-1.57-0.69-2.45c-0.11-3.41-1.4-6.16-4.3-8.15c-1.86-1.28-3.81-2.38-5.83-3.37
	c-1.15-0.56-2.38-0.98-3.32-1.95c-2.18-2.24-4.39-4.44-6.62-6.63c-1.51-1.48-3.14-2.48-5.48-2.46C16.47,7.33,8.26,7.39,0,7.44v3.31
	c1.18-0.02,2.36-0.02,3.54-0.04c0.79-0.01,1.13,0.33,1.13,1.12c-0.01,2.04-0.02,4.08,0.02,6.12c0.01,0.87-0.37,1.19-1.2,1.18
	c-1.16-0.01-2.32-0.01-3.49,0V38.9c7.42,0.04,14.84-0.17,22.27-0.21c1.13-0.01,1.67-0.36,1.73-1.55c0.06-1.21,0.54-2.35,1.05-3.45
	c2.42-5.23,9.13-6.51,13.1-2.43c1.64,1.69,2.29,3.93,2.71,6.21c0.08,0.45,0.06,0.93,0.53,1.21c0.7,0.42,5.15,0.03,5.75-0.5
	c0.06-0.06,0.12-0.12,0.17-0.18C48,37.08,48.31,33.18,47.59,32.29z M31.38,19.23c-0.18,0.32-0.57,0.31-0.9,0.31
	c-0.46,0.01-0.92,0-1.1,0c-4.06-0.14-7.84-0.3-11.63-0.4c-0.96-0.03-1.26-0.45-1.37-1.36c-0.25-2-0.01-3.99,0.02-5.98
	c0.01-0.68,0.25-1.16,1.01-1.14c1.7,0.06,3.39-0.3,5.11-0.04c1,0.15,1.83,0.54,2.54,1.22c2.14,2.04,4.07,4.28,5.99,6.53
	C31.24,18.61,31.58,18.86,31.38,19.23z"/>
</svg>
